<svg width="20" height="20" viewBox="0 0 20 20" fill="none" xmlns="http://www.w3.org/2000/svg">
<path d="M9.26133 2.5C8.04768 2.5 6.86128 2.85989 5.85217 3.53416C4.84306 4.20843 4.05655 5.16679 3.5921 6.28806C3.12766 7.40932 3.00614 8.64314 3.24291 9.83347C3.47968 11.0238 4.06411 12.1172 4.92229 12.9754C5.78047 13.8335 6.87386 14.418 8.06419 14.6547C9.25452 14.8915 10.4883 14.77 11.6096 14.3056C12.7309 13.8411 13.6892 13.0546 14.3635 12.0455C15.0378 11.0364 15.3977 9.84998 15.3977 8.63633C15.3976 7.0089 14.751 5.44817 13.6003 4.2974C12.4495 3.14664 10.8888 2.5001 9.26133 2.5Z" stroke="#2D2D28" stroke-width="2" stroke-miterlimit="10"/>
<path d="M13.8398 13.2144L18.1254 17.4999" stroke="#2D2D28" stroke-width="2" stroke-miterlimit="10" stroke-linecap="round"/>
</svg>
