<svg width="51" height="50" viewBox="0 0 51 50" fill="none" xmlns="http://www.w3.org/2000/svg">
<g clip-path="url(#clip0_3663_68065)">
<path d="M25.4993 34.2659C24.1014 34.2659 22.9297 35.4377 22.9297 36.8355C22.9297 38.2333 24.1014 39.4051 25.4993 39.4051C26.8457 39.4051 28.0688 38.2333 28.0072 36.8972C28.0688 35.4274 26.9074 34.2659 25.4993 34.2659Z" fill="#D01003"/>
<path d="M49.2833 43.3725C50.897 40.587 50.9073 37.2672 49.3039 34.492L33.2081 6.61735C31.615 3.81138 28.737 2.1463 25.5097 2.1463C22.2823 2.1463 19.4044 3.82166 17.8112 6.60707L1.6949 34.5126C0.0914877 37.3186 0.101766 40.659 1.72573 43.4444C3.32914 46.199 6.19678 47.8538 9.4036 47.8538H41.554C44.7711 47.8538 47.6593 46.1784 49.2833 43.3725ZM45.7887 41.3579C44.8945 42.8997 43.3116 43.8144 41.5438 43.8144H9.39333C7.64602 43.8144 6.07344 42.9202 5.19979 41.4093C4.31586 39.8778 4.30558 38.0483 5.18951 36.5066L21.3058 8.61134C22.1795 7.07987 23.7418 6.17538 25.5097 6.17538C27.2672 6.17538 28.8398 7.09015 29.7135 8.62161L45.8195 36.5169C46.6829 38.0175 46.6726 39.8265 45.7887 41.3579Z" fill="#D01003"/>
<path d="M24.8626 16.2275C23.6395 16.577 22.8789 17.687 22.8789 19.0335C22.9406 19.8455 22.992 20.6677 23.0536 21.4797C23.2284 24.5735 23.4031 27.6056 23.5778 30.6993C23.6395 31.7477 24.4515 32.5083 25.4999 32.5083C26.5483 32.5083 27.3705 31.6963 27.4219 30.6377C27.4219 30.0004 27.4219 29.4145 27.4836 28.767C27.5966 26.7833 27.72 24.7996 27.833 22.8159C27.8947 21.5311 28.0078 20.2463 28.0694 18.9615C28.0694 18.499 28.0078 18.0879 27.833 17.6767C27.3088 16.5256 26.0857 15.9397 24.8626 16.2275Z" fill="#D01003"/>
</g>
<defs>
<clipPath id="clip0_3663_68065">
<rect width="50" height="50" fill="white" transform="translate(0.5)"/>
</clipPath>
</defs>
</svg>
