<svg width="50" height="50" viewBox="0 0 50 50" fill="none" xmlns="http://www.w3.org/2000/svg">
<g clip-path="url(#clip0_3663_68272)">
<path d="M25 0C11.2142 0 0 11.2142 0 25C0 38.7858 11.2142 50 25 50C38.7858 50 50 38.7839 50 25C50 11.2161 38.7858 0 25 0ZM25 46.1271C13.3521 46.1271 3.87295 36.6499 3.87295 25C3.87295 13.3501 13.3521 3.87295 25 3.87295C36.6499 3.87295 46.1271 13.3501 46.1271 25C46.1271 36.6499 36.6479 46.1271 25 46.1271Z" fill="#0B9444"/>
<path d="M36.4699 16.3052C35.6817 15.5887 34.4559 15.6448 33.7356 16.4368L21.923 29.4442L16.2162 23.6426C15.4629 22.8796 14.2391 22.8679 13.478 23.6193C12.715 24.3687 12.7034 25.5945 13.4548 26.3575L20.5984 33.6193C20.9644 33.9911 21.4601 34.1983 21.9791 34.1983C21.9907 34.1983 22.0043 34.1983 22.0159 34.2003C22.5504 34.1887 23.0539 33.9601 23.4121 33.5651L36.6015 19.0415C37.32 18.2474 37.2619 17.0236 36.4699 16.3052Z" fill="#0B9444"/>
</g>
<defs>
<clipPath id="clip0_3663_68272">
<rect width="50" height="50" fill="white"/>
</clipPath>
</defs>
</svg>
