<svg width="24" height="24" viewBox="0 0 24 24" fill="none" xmlns="http://www.w3.org/2000/svg">
<path d="M12 2C17.523 2 22 6.477 22 12C22 17.523 17.523 22 12 22C10.2328 22.0029 8.49667 21.5352 6.97001 20.645L2.00401 22L3.35601 17.032C2.46511 15.5049 1.99706 13.768 2.00001 12C2.00001 6.477 6.47701 2 12 2ZM8.59201 7.3L8.39201 7.308C8.26254 7.31589 8.13599 7.3499 8.02001 7.408C7.91153 7.46943 7.81251 7.54622 7.72601 7.636C7.60601 7.749 7.53801 7.847 7.46501 7.942C7.09514 8.4229 6.89599 9.01331 6.89901 9.62C6.90101 10.11 7.02901 10.587 7.22901 11.033C7.63801 11.935 8.31101 12.89 9.19901 13.775C9.41301 13.988 9.62301 14.202 9.84901 14.401C10.9524 15.3725 12.2673 16.073 13.689 16.447L14.257 16.534C14.442 16.544 14.627 16.53 14.813 16.521C15.1043 16.506 15.3886 16.4271 15.646 16.29C15.777 16.2225 15.9048 16.1491 16.029 16.07C16.029 16.07 16.072 16.042 16.154 15.98C16.289 15.88 16.372 15.809 16.484 15.692C16.567 15.606 16.639 15.505 16.694 15.39C16.772 15.227 16.85 14.916 16.882 14.657C16.906 14.459 16.899 14.351 16.896 14.284C16.892 14.177 16.803 14.066 16.706 14.019L16.124 13.758C16.124 13.758 15.254 13.379 14.722 13.137C14.6663 13.1127 14.6067 13.0988 14.546 13.096C14.4776 13.089 14.4085 13.0967 14.3433 13.1186C14.2781 13.1405 14.2183 13.1761 14.168 13.223C14.163 13.221 14.096 13.278 13.373 14.154C13.3315 14.2098 13.2744 14.2519 13.2088 14.2751C13.1433 14.2982 13.0723 14.3013 13.005 14.284C12.9399 14.2665 12.876 14.2445 12.814 14.218C12.69 14.166 12.647 14.146 12.562 14.11C11.9881 13.8595 11.4567 13.5211 10.987 13.107C10.861 12.997 10.744 12.877 10.624 12.761C10.2306 12.3842 9.88774 11.958 9.60401 11.493L9.54501 11.398C9.50264 11.3342 9.46837 11.2653 9.44301 11.193C9.40501 11.046 9.50401 10.928 9.50401 10.928C9.50401 10.928 9.74701 10.662 9.86001 10.518C9.97001 10.378 10.063 10.242 10.123 10.145C10.241 9.955 10.278 9.76 10.216 9.609C9.93601 8.925 9.64601 8.244 9.34801 7.568C9.28901 7.434 9.11401 7.338 8.95501 7.319C8.90101 7.313 8.84701 7.307 8.79301 7.303C8.65872 7.29633 8.52415 7.29766 8.39001 7.307L8.59101 7.299L8.59201 7.3Z" fill="black"/>
</svg>
